<svg height="304" width="304" xmlns="http://www.w3.org/2000/svg"><path d="m0 0h304v304h-304z" fill="#fff"/><g transform="matrix(6.6089461 0 0 6.6075813 150.46597 150.58595)"><path d="m1.6 19.1h16.7.8v-.8-16.7-.9h-.8-16.7-.9v.9 16.7.8z"/><path d="m8.3 4h3.3v11h-3.3z" fill="#fff"/><path d="m4.4 7.9h11v3.3h-11z" fill="#fff"/><path d="m19.1 18.3v-16.7-.9h-.8-16.7-.9v.9 16.7.8h.9 16.7.8z" fill="none" stroke="#fff" stroke-miterlimit="10" stroke-width="1.4357"/></g><path d="m32 32v112h112v-112zm128 0v16h16v-16zm32 0v48h-16v32h-16v32h16v-16h16v-16h16v-32h32v16h16v32h16v-96h-16v16h-16v-16h-16v16h-16v-16zm0 96v16h16v-16zm16 16h16zm16 0h16v-32h-16zm-80 96h-16v-16h16v-16h-16v-48h-32v16h-16v16h16v16h16v16h-32v-16h-16v48h-32v16h96v-16h16zm-80-32v-16h-32v16zm-16-160h80v80h-80zm16 16v48h48v-48zm-32 96v16h16v-16zm0 64v16h16v-16zm64 16h16v16h-16z"/></svg>